# Blender v2.81 (sub 16) OBJ File: 'Palm.blend'
# www.blender.org
mtllib Palm.mtl
o SM_Env_Palm_01_Mesh
v -64.389740 325.081146 193.851578
v -80.742310 254.739334 251.151932
v -64.389740 333.450867 204.126053
v -80.742310 263.109039 261.426392
v 59.464836 333.450867 204.126053
v 75.817398 263.109039 261.426392
v 59.464836 325.081146 193.851578
v 75.817398 254.739334 251.151932
v -51.081093 366.170227 110.873039
v -63.919319 325.800629 192.123367
v -51.081093 378.038239 116.769432
v -63.919319 337.668640 198.019989
v 46.156189 378.038239 116.769432
v 58.994415 337.668640 198.019989
v 46.156189 366.170227 110.873039
v 58.994415 325.800629 192.123367
v -39.474152 365.464294 18.766430
v -49.247307 365.464264 109.493134
v -39.474152 378.716400 18.766432
v -49.247307 378.716370 109.493134
v 34.549004 378.716400 18.766432
v 44.322151 378.716370 109.493134
v 34.549004 365.464294 18.766430
v 44.322151 365.464264 109.493134
v -199.170319 325.081177 -62.360077
v -256.470703 254.739365 -78.712646
v -209.444794 333.450897 -62.360077
v -266.745178 263.109070 -78.712646
v -209.444794 333.450897 61.494511
v -266.745178 263.109070 77.847061
v -199.170319 325.081177 61.494511
v -256.470703 254.739365 77.847061
v -116.191795 366.170258 -49.051418
v -197.442108 325.800659 -61.889648
v -122.088188 378.038269 -49.051418
v -203.338730 337.668671 -61.889645
v -122.088188 378.038269 48.185863
v -203.338730 337.668671 61.024086
v -116.191795 366.170258 48.185863
v -197.442108 325.800659 61.024082
v -24.085182 365.464294 -37.444473
v -114.811890 365.464294 -47.217625
v -24.085182 378.716400 -37.444473
v -114.811890 378.716400 -47.217625
v -24.085182 378.716400 36.578678
v -114.811890 378.716400 46.351833
v -24.085182 365.464294 36.578678
v -114.811890 365.464294 46.351833
v 191.822144 325.081177 59.071102
v 249.122513 254.739365 75.423660
v 202.096619 333.450897 59.071102
v 259.396973 263.109070 75.423660
v 202.096619 333.450897 -64.783478
v 259.396973 263.109070 -81.136047
v 191.822144 325.081177 -64.783478
v 249.122513 254.739365 -81.136047
v 108.843605 366.170258 45.762459
v 190.093933 325.800659 58.600677
v 114.739998 378.038269 45.762459
v 195.990555 337.668671 58.600681
v 114.739998 378.038269 -51.474819
v 195.990555 337.668671 -64.313049
v 108.843605 366.170258 -51.474819
v 190.093933 325.800659 -64.313049
v 16.736996 365.464294 34.155518
v 107.463699 365.464294 43.928425
v 16.736996 378.716400 34.155518
v 107.463699 378.716400 43.928425
v 16.736996 378.716400 -39.867878
v 107.463699 378.716400 -49.640785
v 16.736996 365.464294 -39.867878
v 107.463699 365.464294 -49.640785
v 57.041435 325.081207 -197.140762
v 73.393997 254.739395 -254.441147
v 57.041435 333.450928 -207.415237
v 73.393997 263.109100 -264.715637
v -66.813148 333.450928 -207.415237
v -83.165710 263.109100 -264.715637
v -66.813148 325.081207 -197.140762
v -83.165710 254.739395 -254.441147
v 43.732788 366.170288 -114.162239
v 56.571007 325.800690 -195.412552
v 43.732788 378.038300 -120.058632
v 56.571007 337.668701 -201.309174
v -53.504494 378.038300 -120.058632
v -66.342720 337.668701 -201.309174
v -53.504494 366.170288 -114.162239
v -66.342720 325.800690 -195.412552
v 32.125839 365.464294 -22.055626
v 41.898994 365.464325 -112.782333
v 32.125839 378.716400 -22.055624
v 41.898994 378.716431 -112.782333
v -41.897308 378.716400 -22.055624
v -51.670464 378.716431 -112.782333
v -41.897308 365.464294 -22.055626
v -51.670464 365.464325 -112.782333
v -20.012791 59.818233 14.692833
v 12.662659 59.818233 14.692833
v -20.012791 238.459824 14.692863
v 12.662659 238.459824 14.692863
v -20.012791 238.459824 -17.982101
v 12.662659 238.459824 -17.982101
v -20.012791 59.818241 -17.982132
v 12.662659 59.818241 -17.982132
v -30.656670 59.818241 -28.626087
v 23.306326 59.818241 -28.626087
v 23.306326 59.818233 25.336788
v -30.656670 59.818233 25.336788
v -48.843567 -3.657934 -46.813179
v 41.493240 -3.657934 -46.813179
v 41.493240 -3.657948 43.523857
v -48.843567 -3.657948 43.523857
v -41.720688 238.459824 36.400604
v 34.370338 238.459824 36.400604
v 34.370338 238.459824 -39.689850
v -41.720688 238.459824 -39.689850
v -41.720688 385.059509 36.400631
v 34.370338 385.059509 36.400631
v 34.370338 385.059509 -39.689823
v -41.720688 385.059509 -39.689823
v 34.370338 372.104767 36.400627
v -41.720688 372.104767 36.400627
v -41.720688 372.104767 -39.689827
v 34.370338 372.104767 -39.689827
vt 0.139906 0.358038
vt 0.092732 0.358038
vt 0.092732 0.309469
vt 0.139906 0.309469
vt 0.202478 0.166713
vt 0.155302 0.166713
vt 0.155302 0.118144
vt 0.202478 0.118144
vt 0.566857 0.082122
vt 0.519681 0.082122
vt 0.519681 0.033553
vt 0.566857 0.033553
vt -0.608487 0.356192
vt -0.655661 0.356192
vt -0.655661 0.307620
vt -0.608487 0.307620
vt 0.291167 0.176430
vt 0.244000 0.176430
vt 0.244000 0.127860
vt 0.291167 0.127860
vt 0.450785 0.170754
vt 0.403610 0.170754
vt 0.403610 0.122184
vt 0.450785 0.122184
vt 0.139906 0.358038
vt 0.092732 0.358038
vt 0.092732 0.309469
vt 0.139906 0.309469
vt 1.331408 0.352137
vt 1.284232 0.352137
vt 1.284232 0.303567
vt 1.331408 0.303567
vt 0.566857 0.082122
vt 0.519681 0.082122
vt 0.519681 0.033553
vt 0.566857 0.033553
vt -0.608487 0.356192
vt -0.655661 0.356192
vt -0.655661 0.307620
vt -0.608487 0.307620
vt 0.496296 0.235011
vt 0.449129 0.235011
vt 0.449129 0.186440
vt 0.496296 0.186440
vt 0.385519 0.176430
vt 0.338343 0.176430
vt 0.338343 0.127860
vt 0.385519 0.127860
vt 0.139906 0.358038
vt 0.092732 0.358038
vt 0.092732 0.309469
vt 0.139906 0.309469
vt 0.538744 0.328722
vt 0.491569 0.328722
vt 0.491569 0.280153
vt 0.538744 0.280153
vt 0.139906 0.260898
vt 0.092732 0.260898
vt 0.092732 0.212329
vt 0.139906 0.212329
vt -0.608487 0.356192
vt -0.655661 0.356192
vt -0.655661 0.307620
vt -0.608487 0.307620
vt 0.291167 0.176430
vt 0.244000 0.176430
vt 0.244000 0.127860
vt 0.291167 0.127860
vt 0.385519 0.176430
vt 0.338343 0.176430
vt 0.338343 0.127860
vt 0.385519 0.127860
vt 0.566857 0.179262
vt 0.519681 0.179262
vt 0.519681 0.130693
vt 0.566857 0.130693
vt 0.399695 0.355417
vt 0.352519 0.355417
vt 0.352519 0.306849
vt 0.399695 0.306849
vt 0.139906 0.260898
vt 0.092732 0.260898
vt 0.092732 0.212329
vt 0.139906 0.212329
vt -0.608487 0.356192
vt -0.655661 0.356192
vt -0.655661 0.307620
vt -0.608487 0.307620
vt 0.300218 0.249663
vt 0.253059 0.249663
vt 0.253059 0.201093
vt 0.300218 0.201093
vt 0.385519 0.176430
vt 0.338343 0.176430
vt 0.338343 0.127860
vt 0.385519 0.127860
vt 0.093979 0.183716
vt 0.046803 0.183716
vt 0.046803 0.135145
vt 0.093979 0.135145
vt 0.399695 0.355417
vt 0.352519 0.355417
vt 0.352519 0.306849
vt 0.399695 0.306849
vt 0.093979 0.086577
vt 0.046803 0.086577
vt 0.046803 0.038007
vt 0.093979 0.038007
vt 0.170959 0.162743
vt 0.123785 0.162743
vt 0.123785 0.114173
vt 0.170959 0.114173
vt 0.300218 0.249663
vt 0.253059 0.249663
vt 0.253059 0.201093
vt 0.300218 0.201093
vt 0.394571 0.249663
vt 0.347393 0.249663
vt 0.347393 0.201093
vt 0.394571 0.201093
vt 0.139906 0.358038
vt 0.092732 0.358038
vt 0.092732 0.309469
vt 0.139906 0.309469
vt 0.538744 0.328722
vt 0.491569 0.328722
vt 0.491569 0.280153
vt 0.538744 0.280153
vt 0.139906 0.260898
vt 0.092732 0.260898
vt 0.092732 0.212329
vt 0.139906 0.212329
vt -0.608487 0.356192
vt -0.655661 0.356192
vt -0.655661 0.307620
vt -0.608487 0.307620
vt 0.291167 0.176430
vt 0.244000 0.176430
vt 0.244000 0.127860
vt 0.291167 0.127860
vt 0.385519 0.176430
vt 0.338343 0.176430
vt 0.338343 0.127860
vt 0.385519 0.127860
vt 0.139906 0.358038
vt 0.092732 0.358038
vt 0.092732 0.309469
vt 0.139906 0.309469
vt 1.331408 0.352137
vt 1.284232 0.352137
vt 1.284232 0.303567
vt 1.331408 0.303567
vt 0.566857 0.082122
vt 0.519681 0.082122
vt 0.519681 0.033553
vt 0.566857 0.033553
vt -0.608487 0.356192
vt -0.655661 0.356192
vt -0.655661 0.307620
vt -0.608487 0.307620
vt 0.496296 0.235011
vt 0.449129 0.235011
vt 0.449129 0.186440
vt 0.496296 0.186440
vt 0.385519 0.176430
vt 0.338343 0.176430
vt 0.338343 0.127860
vt 0.385519 0.127860
vt 0.139906 0.358038
vt 0.092732 0.358038
vt 0.092732 0.309469
vt 0.139906 0.309469
vt 1.331408 0.352137
vt 1.284232 0.352137
vt 1.284232 0.303567
vt 1.331408 0.303567
vt 0.139906 0.260898
vt 0.092732 0.260898
vt 0.092732 0.212329
vt 0.139906 0.212329
vt -0.608487 0.356192
vt -0.655661 0.356192
vt -0.655661 0.307620
vt -0.608487 0.307620
vt 0.291167 0.176430
vt 0.244000 0.176430
vt 0.244000 0.127860
vt 0.291167 0.127860
vt 0.394571 0.249663
vt 0.347393 0.249663
vt 0.347393 0.201093
vt 0.394571 0.201093
vt 0.139906 0.358038
vt 0.092732 0.358038
vt 0.092732 0.309469
vt 0.139906 0.309469
vt 0.538744 0.328722
vt 0.491569 0.328722
vt 0.491569 0.280153
vt 0.538744 0.280153
vt 0.139906 0.260898
vt 0.092732 0.260898
vt 0.092732 0.212329
vt 0.139906 0.212329
vt -0.608487 0.356192
vt -0.655661 0.356192
vt -0.655661 0.307620
vt -0.608487 0.307620
vt 0.291167 0.176430
vt 0.244000 0.176430
vt 0.244000 0.127860
vt 0.291167 0.127860
vt 0.385519 0.176430
vt 0.338343 0.176430
vt 0.338343 0.127860
vt 0.385519 0.127860
vt 0.566857 0.179262
vt 0.519681 0.179262
vt 0.519681 0.130693
vt 0.566857 0.130693
vt 1.331408 0.352137
vt 1.284232 0.352137
vt 1.284232 0.303567
vt 1.331408 0.303567
vt 0.139906 0.260898
vt 0.092732 0.260898
vt 0.092732 0.212329
vt 0.139906 0.212329
vt -0.608487 0.356192
vt -0.655661 0.356192
vt -0.655661 0.307620
vt -0.608487 0.307620
vt 0.496296 0.235011
vt 0.449129 0.235011
vt 0.449129 0.186440
vt 0.496296 0.186440
vt 0.385519 0.176430
vt 0.338343 0.176430
vt 0.338343 0.127860
vt 0.385519 0.127860
vt 0.566857 0.179262
vt 0.519681 0.179262
vt 0.519681 0.130693
vt 0.566857 0.130693
vt 1.331408 0.352137
vt 1.284232 0.352137
vt 1.284232 0.303567
vt 1.331408 0.303567
vt 0.139906 0.260898
vt 0.092732 0.260898
vt 0.092732 0.212329
vt 0.139906 0.212329
vt -0.608487 0.356192
vt -0.655661 0.356192
vt -0.655661 0.307620
vt -0.608487 0.307620
vt 0.291167 0.176430
vt 0.244000 0.176430
vt 0.244000 0.127860
vt 0.291167 0.127860
vt 0.394571 0.249663
vt 0.347393 0.249663
vt 0.347393 0.201093
vt 0.394571 0.201093
vt 0.139906 0.358038
vt 0.092732 0.358038
vt 0.092732 0.309469
vt 0.139906 0.309469
vt 0.538744 0.328722
vt 0.491569 0.328722
vt 0.491569 0.280153
vt 0.538744 0.280153
vt 0.139906 0.260898
vt 0.092732 0.260898
vt 0.092732 0.212329
vt 0.139906 0.212329
vt -0.608487 0.356192
vt -0.655661 0.356192
vt -0.655661 0.307620
vt -0.608487 0.307620
vt 0.496296 0.235011
vt 0.449129 0.235011
vt 0.449129 0.186440
vt 0.496296 0.186440
vt 0.385519 0.176430
vt 0.338343 0.176430
vt 0.338343 0.127860
vt 0.385519 0.127860
vt 0.501267 0.415940
vt 0.501645 0.415940
vt 0.506150 0.974624
vt 0.505771 0.974624
vt 0.223050 0.836719
vt 0.223050 0.829001
vt 0.230768 0.829001
vt 0.230768 0.836719
vt 0.505373 0.974624
vt 0.505752 0.974624
vt 0.501247 0.415940
vt 0.500869 0.415940
vt 0.082422 0.540094
vt 0.089166 0.540094
vt 0.089166 0.546838
vt 0.082422 0.546838
vt 0.452657 0.415940
vt 0.453036 0.415940
vt 0.457540 0.974624
vt 0.457161 0.974624
vt 0.453054 0.415940
vt 0.453433 0.415940
vt 0.457938 0.974624
vt 0.457559 0.974624
vt 0.297361 0.830726
vt 0.297361 0.826819
vt 0.298779 0.825401
vt 0.298779 0.832145
vt 0.293454 0.826819
vt 0.292035 0.825401
vt 0.293454 0.830726
vt 0.292035 0.832145
vt 0.200247 0.628048
vt 0.200247 0.621303
vt 0.201449 0.621303
vt 0.201449 0.628048
vt 0.142669 0.527234
vt 0.142669 0.533978
vt 0.141468 0.533978
vt 0.141468 0.527234
vt 0.200024 0.621303
vt 0.200024 0.628048
vt 0.198823 0.628048
vt 0.198823 0.621303
vt 0.138395 0.527234
vt 0.138395 0.533978
vt 0.137194 0.533978
vt 0.137194 0.527234
vt 0.415816 0.656381
vt 0.415816 0.652474
vt 0.417722 0.650568
vt 0.417722 0.658287
vt 0.411909 0.652474
vt 0.410004 0.650568
vt 0.411909 0.656381
vt 0.410004 0.658287
vt 0.508254 0.739186
vt 0.508254 0.731468
vt 0.510552 0.731468
vt 0.510552 0.739186
vt 0.443242 0.670536
vt 0.443242 0.662817
vt 0.445540 0.662817
vt 0.445540 0.670536
vt 0.508074 0.739954
vt 0.508074 0.747673
vt 0.505776 0.747673
vt 0.505776 0.739954
vt 0.439897 0.670536
vt 0.439897 0.662817
vt 0.442195 0.662817
vt 0.442195 0.670536
vt 0.148607 0.678158
vt 0.148607 0.670439
vt 0.148744 0.670439
vt 0.148744 0.678158
vt 0.137801 0.609507
vt 0.137801 0.601789
vt 0.137938 0.601789
vt 0.137938 0.609507
vt 0.147852 0.678926
vt 0.147852 0.686644
vt 0.147715 0.686644
vt 0.147715 0.678926
vt 0.138329 0.609507
vt 0.138329 0.601789
vt 0.138466 0.601789
vt 0.138466 0.609507
vn -0.9841 0.1375 -0.1120
vn 0.0000 0.6316 0.7753
vn 0.9841 0.1375 -0.1120
vn 0.0000 -0.6316 -0.7753
vn 0.0000 -0.7753 0.6316
vn 0.0000 0.7753 -0.6316
vn -0.9901 0.0623 -0.1255
vn 0.0000 0.8956 0.4450
vn 0.9901 0.0623 -0.1255
vn 0.0000 -0.8956 -0.4450
vn 0.0000 -0.4450 0.8956
vn 0.0000 0.4449 -0.8956
vn -0.9942 0.0000 -0.1071
vn 0.0000 1.0000 0.0000
vn 0.9942 0.0000 -0.1071
vn 0.0000 -1.0000 -0.0000
vn 0.0000 0.0000 1.0000
vn 0.0000 0.0000 -1.0000
vn 0.1120 0.1375 -0.9841
vn -0.7753 0.6316 0.0000
vn 0.1120 0.1375 0.9841
vn 0.7753 -0.6316 0.0000
vn -0.6316 -0.7753 0.0000
vn 0.6316 0.7753 0.0000
vn 0.1255 0.0623 -0.9901
vn -0.4450 0.8956 0.0000
vn 0.1255 0.0623 0.9901
vn 0.4450 -0.8956 0.0000
vn -0.8956 -0.4450 0.0000
vn 0.8956 0.4449 0.0000
vn 0.1071 0.0000 -0.9942
vn 0.1071 0.0000 0.9942
vn -1.0000 0.0000 0.0000
vn 1.0000 0.0000 0.0000
vn -0.1120 0.1375 0.9841
vn 0.7753 0.6316 0.0000
vn -0.1120 0.1375 -0.9841
vn -0.7753 -0.6316 0.0000
vn 0.6316 -0.7753 0.0000
vn -0.6316 0.7753 0.0000
vn -0.1255 0.0623 0.9901
vn 0.4450 0.8956 0.0000
vn -0.1255 0.0623 -0.9901
vn -0.4450 -0.8956 0.0000
vn 0.8956 -0.4450 0.0000
vn -0.8956 0.4449 0.0000
vn -0.1071 0.0000 0.9942
vn -0.1071 0.0000 -0.9942
vn 0.9841 0.1375 0.1120
vn 0.0000 0.6316 -0.7753
vn -0.9841 0.1375 0.1120
vn 0.0000 -0.6316 0.7753
vn 0.0000 -0.7753 -0.6316
vn 0.0000 0.7753 0.6316
vn 0.9901 0.0623 0.1255
vn 0.0000 0.8956 -0.4450
vn -0.9901 0.0623 0.1255
vn 0.0000 -0.8956 0.4450
vn 0.0000 -0.4450 -0.8956
vn 0.0000 0.4449 0.8956
vn 0.9942 0.0000 0.1071
vn -0.9942 0.0000 0.1071
vn 0.0000 0.2754 -0.9613
vn 0.9613 0.2754 0.0000
vn 0.0000 0.2754 0.9613
vn -0.9613 0.2754 0.0000
usemtl Material.001
s 1
f 1/1/1 2/2/1 4/3/1 3/4/1
f 3/5/2 4/6/2 6/7/2 5/8/2
f 5/9/3 6/10/3 8/11/3 7/12/3
f 7/13/4 8/14/4 2/15/4 1/16/4
f 2/17/5 8/18/5 6/19/5 4/20/5
f 7/21/6 1/22/6 3/23/6 5/24/6
f 9/25/7 10/26/7 12/27/7 11/28/7
f 11/29/8 12/30/8 14/31/8 13/32/8
f 13/33/9 14/34/9 16/35/9 15/36/9
f 15/37/10 16/38/10 10/39/10 9/40/10
f 10/41/11 16/42/11 14/43/11 12/44/11
f 15/45/12 9/46/12 11/47/12 13/48/12
f 17/49/13 18/50/13 20/51/13 19/52/13
f 19/53/14 20/54/14 22/55/14 21/56/14
f 21/57/15 22/58/15 24/59/15 23/60/15
f 23/61/16 24/62/16 18/63/16 17/64/16
f 18/65/17 24/66/17 22/67/17 20/68/17
f 23/69/18 17/70/18 19/71/18 21/72/18
f 25/73/19 26/74/19 28/75/19 27/76/19
f 27/77/20 28/78/20 30/79/20 29/80/20
f 29/81/21 30/82/21 32/83/21 31/84/21
f 31/85/22 32/86/22 26/87/22 25/88/22
f 26/89/23 32/90/23 30/91/23 28/92/23
f 31/93/24 25/94/24 27/95/24 29/96/24
f 33/97/25 34/98/25 36/99/25 35/100/25
f 35/101/26 36/102/26 38/103/26 37/104/26
f 37/105/27 38/106/27 40/107/27 39/108/27
f 39/109/28 40/110/28 34/111/28 33/112/28
f 34/113/29 40/114/29 38/115/29 36/116/29
f 39/117/30 33/118/30 35/119/30 37/120/30
f 41/121/31 42/122/31 44/123/31 43/124/31
f 43/125/14 44/126/14 46/127/14 45/128/14
f 45/129/32 46/130/32 48/131/32 47/132/32
f 47/133/16 48/134/16 42/135/16 41/136/16
f 42/137/33 48/138/33 46/139/33 44/140/33
f 47/141/34 41/142/34 43/143/34 45/144/34
f 49/145/35 50/146/35 52/147/35 51/148/35
f 51/149/36 52/150/36 54/151/36 53/152/36
f 53/153/37 54/154/37 56/155/37 55/156/37
f 55/157/38 56/158/38 50/159/38 49/160/38
f 50/161/39 56/162/39 54/163/39 52/164/39
f 55/165/40 49/166/40 51/167/40 53/168/40
f 57/169/41 58/170/41 60/171/41 59/172/41
f 59/173/42 60/174/42 62/175/42 61/176/42
f 61/177/43 62/178/43 64/179/43 63/180/43
f 63/181/44 64/182/44 58/183/44 57/184/44
f 58/185/45 64/186/45 62/187/45 60/188/45
f 63/189/46 57/190/46 59/191/46 61/192/46
f 65/193/47 66/194/47 68/195/47 67/196/47
f 67/197/14 68/198/14 70/199/14 69/200/14
f 69/201/48 70/202/48 72/203/48 71/204/48
f 71/205/16 72/206/16 66/207/16 65/208/16
f 66/209/34 72/210/34 70/211/34 68/212/34
f 71/213/33 65/214/33 67/215/33 69/216/33
f 73/217/49 74/218/49 76/219/49 75/220/49
f 75/221/50 76/222/50 78/223/50 77/224/50
f 77/225/51 78/226/51 80/227/51 79/228/51
f 79/229/52 80/230/52 74/231/52 73/232/52
f 74/233/53 80/234/53 78/235/53 76/236/53
f 79/237/54 73/238/54 75/239/54 77/240/54
f 81/241/55 82/242/55 84/243/55 83/244/55
f 83/245/56 84/246/56 86/247/56 85/248/56
f 85/249/57 86/250/57 88/251/57 87/252/57
f 87/253/58 88/254/58 82/255/58 81/256/58
f 82/257/59 88/258/59 86/259/59 84/260/59
f 87/261/60 81/262/60 83/263/60 85/264/60
f 89/265/61 90/266/61 92/267/61 91/268/61
f 91/269/14 92/270/14 94/271/14 93/272/14
f 93/273/62 94/274/62 96/275/62 95/276/62
f 95/277/16 96/278/16 90/279/16 89/280/16
f 90/281/18 96/282/18 94/283/18 92/284/18
f 95/285/17 89/286/17 91/287/17 93/288/17
f 97/289/17 98/290/17 100/291/17 99/292/17
f 117/293/14 118/294/14 119/295/14 120/296/14
f 101/297/18 102/298/18 104/299/18 103/300/18
f 109/301/16 110/302/16 111/303/16 112/304/16
f 98/305/34 104/306/34 102/307/34 100/308/34
f 103/309/33 97/310/33 99/311/33 101/312/33
f 103/313/14 104/314/14 106/315/14 105/316/14
f 104/314/14 98/317/14 107/318/14 106/315/14
f 98/317/14 97/319/14 108/320/14 107/318/14
f 97/319/14 103/313/14 105/316/14 108/320/14
f 105/321/63 106/322/63 110/323/63 109/324/63
f 106/325/64 107/326/64 111/327/64 110/328/64
f 107/329/65 108/330/65 112/331/65 111/332/65
f 108/333/66 105/334/66 109/335/66 112/336/66
f 99/337/16 100/338/16 114/339/16 113/340/16
f 100/338/16 102/341/16 115/342/16 114/339/16
f 102/341/16 101/343/16 116/344/16 115/342/16
f 101/343/16 99/337/16 113/340/16 116/344/16
f 113/345/17 114/346/17 121/347/17 122/348/17
f 114/349/34 115/350/34 124/351/34 121/352/34
f 115/353/18 116/354/18 123/355/18 124/356/18
f 116/357/33 113/358/33 122/359/33 123/360/33
f 122/361/17 121/362/17 118/363/17 117/364/17
f 123/365/33 122/366/33 117/367/33 120/368/33
f 124/369/18 123/370/18 120/371/18 119/372/18
f 121/373/34 124/374/34 119/375/34 118/376/34
