# Blender v2.81 (sub 16) OBJ File: ''
# www.blender.org
mtllib Rock.mtl
o SM_Env_Rock_Brown_02_Mesh
v -1.558546 -0.000000 0.937072
v -0.214284 -0.000000 0.937072
v -1.389285 0.477495 0.840796
v -0.383551 0.477495 0.840796
v -1.389285 0.477495 -0.328759
v -0.383551 0.477495 -0.328759
v -1.558546 0.000000 -0.425034
v -0.214284 0.000000 -0.425034
v -1.158456 -0.000000 0.389940
v -0.002248 -0.000000 0.389940
v -1.012872 0.976640 0.307134
v -0.147837 0.976640 0.307134
v -1.012872 0.976640 -0.698808
v -0.147837 0.976640 -0.698808
v -1.158456 0.000000 -0.781615
v -0.002248 0.000000 -0.781615
v -0.928258 -0.000000 0.745217
v 0.503118 -0.000000 0.745217
v -0.721216 0.687393 0.627453
v 0.296077 0.687393 0.627453
v -0.721216 0.687393 -0.803154
v 0.296077 0.687393 -0.803154
v -0.928258 0.000000 -0.920919
v 0.503118 0.000000 -0.920919
v -0.923951 0.000000 -0.301700
v 0.318536 0.000000 -0.301700
v -0.704591 0.427212 -0.481575
v 0.099176 0.427212 -0.481575
v -0.704591 0.427212 -1.140665
v 0.099176 0.427212 -1.140665
v -0.923951 0.000000 -1.320540
v 0.318536 0.000000 -1.320540
v -1.432163 -0.000000 1.320540
v -0.377262 -0.000000 1.320540
v -1.245921 0.371104 1.135818
v -0.563504 0.371104 1.135818
v -1.245921 0.371104 0.458978
v -0.563504 0.371104 0.458978
v -1.432163 -0.000000 0.274256
v -0.377262 -0.000000 0.274256
v -0.226242 -0.000000 0.605824
v 1.118020 -0.000000 0.605824
v -0.056980 0.477495 0.509548
v 0.948753 0.477495 0.509548
v -0.056980 0.477496 -0.660007
v 0.948753 0.477496 -0.660007
v -0.226242 0.000000 -0.756283
v 1.118020 0.000000 -0.756283
v 0.503645 -0.000000 0.305426
v 1.558546 -0.000000 0.305426
v 0.689887 0.371105 0.120705
v 1.372304 0.371105 0.120705
v 0.689887 0.371105 -0.556136
v 1.372304 0.371105 -0.556136
v 0.503645 0.000000 -0.740857
v 1.558546 0.000000 -0.740857
vt 0.279289 0.448098
vt 0.108561 0.448098
vt 0.108561 0.277347
vt 0.279289 0.277347
vt 0.522810 0.071892
vt 0.825761 0.071892
vt 0.825761 0.374842
vt 0.522810 0.374842
vt 0.273613 0.174725
vt 0.102886 0.174725
vt 0.102886 0.003885
vt 0.273613 0.003885
vt 0.456456 0.457910
vt 0.790411 0.457910
vt 0.790411 0.791865
vt 0.456456 0.791865
vt 0.465457 0.626348
vt 0.688143 0.626348
vt 0.688143 0.849043
vt 0.465457 0.849043
vt 0.020076 0.626348
vt 0.242762 0.626348
vt 0.242762 0.849043
vt 0.020076 0.849043
vt 0.279289 0.448098
vt 0.108561 0.448098
vt 0.108561 0.277347
vt 0.279289 0.277347
vt 0.522810 0.071892
vt 0.825761 0.071892
vt 0.825761 0.374842
vt 0.522810 0.374842
vt 0.273613 0.174725
vt 0.102886 0.174725
vt 0.102886 0.003885
vt 0.273613 0.003885
vt 0.456456 0.457910
vt 0.790411 0.457910
vt 0.790411 0.791865
vt 0.456456 0.791865
vt 0.465457 0.626348
vt 0.688143 0.626348
vt 0.688143 0.849043
vt 0.465457 0.849043
vt 0.020076 0.626348
vt 0.242762 0.626348
vt 0.242762 0.849043
vt 0.020076 0.849043
vt 0.279289 0.448098
vt 0.108561 0.448098
vt 0.108561 0.277347
vt 0.279289 0.277347
vt 0.522810 0.071892
vt 0.825761 0.071892
vt 0.825761 0.374842
vt 0.522810 0.374842
vt 0.273613 0.174725
vt 0.102886 0.174725
vt 0.102886 0.003885
vt 0.273613 0.003885
vt 0.456456 0.457910
vt 0.790411 0.457910
vt 0.790411 0.791865
vt 0.456456 0.791865
vt 0.465457 0.626348
vt 0.688143 0.626348
vt 0.688143 0.849043
vt 0.465457 0.849043
vt 0.020076 0.626348
vt 0.242762 0.626348
vt 0.242762 0.849043
vt 0.020076 0.849043
vt 0.279289 0.448098
vt 0.108561 0.448098
vt 0.108561 0.277347
vt 0.279289 0.277347
vt 0.522810 0.071892
vt 0.825761 0.071892
vt 0.825761 0.374842
vt 0.522810 0.374842
vt 0.273613 0.174725
vt 0.102886 0.174725
vt 0.102886 0.003885
vt 0.273613 0.003885
vt 0.456456 0.457910
vt 0.790411 0.457910
vt 0.790411 0.791865
vt 0.456456 0.791865
vt 0.465457 0.626348
vt 0.688143 0.626348
vt 0.688143 0.849043
vt 0.465457 0.849043
vt 0.020076 0.626348
vt 0.242762 0.626348
vt 0.242762 0.849043
vt 0.020076 0.849043
vt 0.279289 0.448098
vt 0.108561 0.448098
vt 0.108561 0.277347
vt 0.279289 0.277347
vt 0.522810 0.071892
vt 0.825761 0.071892
vt 0.825761 0.374842
vt 0.522810 0.374842
vt 0.273613 0.174725
vt 0.102886 0.174725
vt 0.102886 0.003885
vt 0.273613 0.003885
vt 0.456456 0.457910
vt 0.790411 0.457910
vt 0.790411 0.791865
vt 0.456456 0.791865
vt 0.465457 0.626348
vt 0.688143 0.626348
vt 0.688143 0.849043
vt 0.465457 0.849043
vt 0.020076 0.626348
vt 0.242762 0.626348
vt 0.242762 0.849043
vt 0.020076 0.849043
vt 0.279289 0.448098
vt 0.108561 0.448098
vt 0.108561 0.277347
vt 0.279289 0.277347
vt 0.522810 0.071892
vt 0.825761 0.071892
vt 0.825761 0.374842
vt 0.522810 0.374842
vt 0.273613 0.174725
vt 0.102886 0.174725
vt 0.102886 0.003885
vt 0.273613 0.003885
vt 0.456456 0.457910
vt 0.790411 0.457910
vt 0.790411 0.791865
vt 0.456456 0.791865
vt 0.465457 0.626348
vt 0.688143 0.626348
vt 0.688143 0.849043
vt 0.465457 0.849043
vt 0.020076 0.626348
vt 0.242762 0.626348
vt 0.242762 0.849043
vt 0.020076 0.849043
vt 0.279289 0.448098
vt 0.108561 0.448098
vt 0.108561 0.277347
vt 0.279289 0.277347
vt 0.522810 0.071892
vt 0.825761 0.071892
vt 0.825761 0.374842
vt 0.522810 0.374842
vt 0.273613 0.174725
vt 0.102886 0.174725
vt 0.102886 0.003885
vt 0.273613 0.003885
vt 0.456456 0.457910
vt 0.790411 0.457910
vt 0.790411 0.791865
vt 0.456456 0.791865
vt 0.465457 0.626348
vt 0.688143 0.626348
vt 0.688143 0.849043
vt 0.465457 0.849043
vt 0.020076 0.626348
vt 0.242762 0.626348
vt 0.242762 0.849043
vt 0.020076 0.849043
vn 0.0000 0.1976 0.9803
vn 0.0000 1.0000 0.0000
vn 0.0000 0.1976 -0.9803
vn 0.0000 -1.0000 -0.0000
vn 0.9425 0.3341 0.0000
vn -0.9425 0.3341 0.0000
vn 0.0000 0.0845 0.9964
vn 0.0000 0.0845 -0.9964
vn 0.9891 0.1474 0.0000
vn -0.9891 0.1474 0.0000
vn 0.0000 0.1689 0.9856
vn 0.0000 0.1689 -0.9856
vn 0.9575 0.2884 0.0000
vn -0.9575 0.2884 0.0000
vn 0.0000 0.3881 0.9216
vn 0.0000 0.3881 -0.9216
vn 0.8896 0.4568 0.0000
vn -0.8896 0.4568 0.0000
vn 0.0000 0.4456 0.8952
vn 0.0000 0.4456 -0.8952
vn 0.8938 0.4485 0.0000
vn -0.8938 0.4485 0.0000
usemtl Material
s 1
f 1/1/1 2/2/1 4/3/1 3/4/1
f 3/5/2 4/6/2 6/7/2 5/8/2
f 5/9/3 6/10/3 8/11/3 7/12/3
f 7/13/4 8/14/4 2/15/4 1/16/4
f 2/17/5 8/18/5 6/19/5 4/20/5
f 7/21/6 1/22/6 3/23/6 5/24/6
f 9/25/7 10/26/7 12/27/7 11/28/7
f 11/29/2 12/30/2 14/31/2 13/32/2
f 13/33/8 14/34/8 16/35/8 15/36/8
f 15/37/4 16/38/4 10/39/4 9/40/4
f 10/41/9 16/42/9 14/43/9 12/44/9
f 15/45/10 9/46/10 11/47/10 13/48/10
f 17/49/11 18/50/11 20/51/11 19/52/11
f 19/53/2 20/54/2 22/55/2 21/56/2
f 21/57/12 22/58/12 24/59/12 23/60/12
f 23/61/4 24/62/4 18/63/4 17/64/4
f 18/65/13 24/66/13 22/67/13 20/68/13
f 23/69/14 17/70/14 19/71/14 21/72/14
f 25/73/15 26/74/15 28/75/15 27/76/15
f 27/77/2 28/78/2 30/79/2 29/80/2
f 29/81/16 30/82/16 32/83/16 31/84/16
f 31/85/4 32/86/4 26/87/4 25/88/4
f 26/89/17 32/90/17 30/91/17 28/92/17
f 31/93/18 25/94/18 27/95/18 29/96/18
f 33/97/19 34/98/19 36/99/19 35/100/19
f 35/101/2 36/102/2 38/103/2 37/104/2
f 37/105/20 38/106/20 40/107/20 39/108/20
f 39/109/4 40/110/4 34/111/4 33/112/4
f 34/113/21 40/114/21 38/115/21 36/116/21
f 39/117/22 33/118/22 35/119/22 37/120/22
f 41/121/1 42/122/1 44/123/1 43/124/1
f 43/125/2 44/126/2 46/127/2 45/128/2
f 45/129/3 46/130/3 48/131/3 47/132/3
f 47/133/4 48/134/4 42/135/4 41/136/4
f 42/137/5 48/138/5 46/139/5 44/140/5
f 47/141/6 41/142/6 43/143/6 45/144/6
f 49/145/19 50/146/19 52/147/19 51/148/19
f 51/149/2 52/150/2 54/151/2 53/152/2
f 53/153/20 54/154/20 56/155/20 55/156/20
f 55/157/4 56/158/4 50/159/4 49/160/4
f 50/161/21 56/162/21 54/163/21 52/164/21
f 55/165/22 49/166/22 51/167/22 53/168/22
